<?xml version="1.0" encoding="UTF-8" standalone="no"?>
<!-- Created with Inkscape (http://www.inkscape.org/) -->

<svg
   width="73.352089mm"
   height="73.393646mm"
   viewBox="0 0 73.352089 73.393646"
   version="1.1"
   id="svg1"
   xml:space="preserve"
   inkscape:version="1.4.2 (f4327f4, 2025-05-13)"
   sodipodi:docname="favicon.svg"
   inkscape:export-filename="favicon.png"
   inkscape:export-xdpi="96"
   inkscape:export-ydpi="96"
   xmlns:inkscape="http://www.inkscape.org/namespaces/inkscape"
   xmlns:sodipodi="http://sodipodi.sourceforge.net/DTD/sodipodi-0.dtd"
   xmlns="http://www.w3.org/2000/svg"
   xmlns:svg="http://www.w3.org/2000/svg"><sodipodi:namedview
     id="namedview1"
     pagecolor="#ffffff"
     bordercolor="#000000"
     borderopacity="0.25"
     inkscape:showpageshadow="2"
     inkscape:pageopacity="0.0"
     inkscape:pagecheckerboard="true"
     inkscape:deskcolor="#d1d1d1"
     inkscape:document-units="mm"
     inkscape:zoom="0.065517863"
     inkscape:cx="373.94382"
     inkscape:cy="946.30681"
     inkscape:window-width="1920"
     inkscape:window-height="1050"
     inkscape:window-x="-9"
     inkscape:window-y="-9"
     inkscape:window-maximized="1"
     inkscape:current-layer="layer1" /><defs
     id="defs1" /><g
     inkscape:label="Livello 1"
     inkscape:groupmode="layer"
     id="layer1"
     transform="translate(-1.8968905,-1.3531623)"><path
       style="fill:#ffffff;fill-opacity:1;stroke:#723f81;stroke-width:8;stroke-dasharray:none;stroke-opacity:1"
       d="M 30.290968,70.52722 C 29.810471,70.29042 29.257297,69.78711 29.061692,69.40877 28.00301,67.36102 5.8968905,9.2993643 5.8968905,8.5664873 c 0,-0.472094 0.173349,-1.193573 0.38522,-1.603286 0.403189,-0.779681 1.822712,-1.610039 2.752413,-1.610039 0.466522,0 57.1923545,21.6594227 60.2774345,23.0155177 1.29455,0.569037 1.93702,1.616355 1.93702,3.15761 0,1.85071 -0.60334,2.21022 -13.58122,8.09254 -6.523789,2.95696 -11.941129,5.45461 -12.038539,5.55036 -0.0974,0.0958 -2.67743,5.66767 -5.73337,12.38204 -4.92744,10.82636 -5.657994,12.27645 -6.455273,12.81327 -1.055727,0.71083 -1.944289,0.75674 -3.149608,0.16272 z"
       id="path1" /></g></svg>
